<?xml version="1.0" standalone="no"?><!DOCTYPE svg PUBLIC "-//W3C//DTD SVG 1.1//EN" "http://www.w3.org/Graphics/SVG/1.1/DTD/svg11.dtd"><svg t="1742267148538" class="icon" viewBox="0 0 1024 1024" version="1.1" xmlns="http://www.w3.org/2000/svg" p-id="4899" xmlns:xlink="http://www.w3.org/1999/xlink" width="200" height="200"><path d="M512 512m-460.8 0a460.8 460.8 0 1 0 921.6 0 460.8 460.8 0 1 0-921.6 0Z" fill="#F9D67A" p-id="4900"></path><path d="M722.7392 348.0064V227.0208c0-8.0384-6.5024-14.5408-14.5408-14.5408h-69.5296c-8.0384 0-14.5408 6.5024-14.5408 14.5408v40.5504l-50.8416-41.3696-63.0272-51.456-63.0784 51.456-264.448 215.6032a12.65664 12.65664 0 0 0 0 19.6608l43.008 35.0208c4.6592 3.7888 11.3664 3.7888 16.0256 0l268.544-218.8288 268.4928 218.8288c4.6592 3.7888 11.3664 3.7888 16.0256 0l43.0592-35.0208a12.65664 12.65664 0 0 0 0-19.6608l-115.1488-93.7984z" fill="#F48433" p-id="4901"></path><path d="M786.7904 504.4736c-3.9936 0-7.9872-1.3312-11.264-3.9936L510.2592 284.2624 244.992 500.48a17.88416 17.88416 0 0 1-22.528 0l-43.008-35.0208c-4.1472-3.3792-6.5536-8.448-6.5536-13.824s2.4064-10.3936 6.5536-13.824l330.8032-269.6704 108.7488 88.6784v-29.7984c0-10.8544 8.8064-19.6608 19.6608-19.6608h69.5296c10.8544 0 19.6608 8.8064 19.6608 19.6608v118.528l113.2032 92.2624a17.8176 17.8176 0 0 1 6.5536 13.824c0 5.376-2.4064 10.3936-6.5536 13.824l-43.0592 35.0208c-3.2256 2.6624-7.2192 3.9936-11.2128 3.9936zM510.2592 271.0528l271.7184 221.4912c2.7648 2.2528 6.8096 2.2528 9.5744 0l43.0592-35.0208c1.792-1.4336 2.816-3.584 2.816-5.888 0-2.304-1.024-4.4032-2.7648-5.888l-116.992-95.3344v-123.392c0-5.1712-4.2496-9.4208-9.4208-9.4208h-69.5296c-5.1712 0-9.4208 4.2496-9.4208 9.4208v51.3024L510.2592 181.3504 185.9584 445.7984c-1.792 1.4336-2.7648 3.584-2.7648 5.888s1.024 4.4032 2.7648 5.888l43.008 35.0208c2.7648 2.2528 6.8096 2.2528 9.5744 0l271.7184-221.5424z" fill="#413D2C" p-id="4902"></path><path d="M722.432 813.6192c18.8928 0 34.2016-15.36 34.2016-34.2528l-0.3072-179.7632v-76.1856l-4.7104-3.84-178.4832-145.5104-62.976-51.456-63.0272 51.456-178.5344 145.5616-4.7104 3.84v76.1344l0.2048 179.9168a34.1504 34.1504 0 0 0 34.2016 34.1504l424.1408-0.0512z" fill="#6295CC" p-id="4903"></path><path d="M298.2912 818.7904c-21.6576 0-39.2704-17.6128-39.3216-39.2704l-0.2048-258.5088 251.392-205.056 251.3408 204.9536v78.592l0.256 179.7632c0 10.496-4.0448 20.3776-11.4688 27.8528s-17.3056 11.52-27.8016 11.52l-424.192 0.1536z m-29.2864-292.9152l0.2048 253.5936c0 16.0256 13.056 29.0304 29.0816 29.0304l424.1408-0.0512c7.7824 0 15.0528-3.0208 20.5824-8.5504a28.928 28.928 0 0 0 8.4992-20.5824l-0.256-253.5424L510.1568 329.216l-241.152 196.6592z" fill="#413D2C" p-id="4904"></path><path d="M483.0208 759.4496h-3.84v-130.2528c0-38.8096-31.7952-70.5536-70.5536-70.5536-38.7584 0-70.5536 31.6928-70.5536 70.5536v130.2528h-3.84c-3.0208 0-5.4272 2.4064-5.4272 5.4272 0 3.0208 2.4064 5.4272 5.4272 5.4272h148.736c3.0208 0 5.4272-2.5088 5.4272-5.4272 0.0512-2.9696-2.3552-5.4272-5.376-5.4272z" fill="#FFFFFF" p-id="4905"></path><path d="M483.0208 775.4752H334.2848c-5.8368 0-10.5472-4.7104-10.5472-10.5472 0-5.376 4.0448-9.8304 9.2672-10.496v-125.2352c0-41.728 33.9456-75.6736 75.6736-75.6736s75.6736 33.9456 75.6736 75.6736v125.2352c5.2224 0.6656 9.2672 5.12 9.2672 10.496a10.64448 10.64448 0 0 1-10.5984 10.5472z m-148.736-10.9056v0.6656h148.736v-0.6656h-8.96v-135.3728c0-36.0448-29.3376-65.4336-65.4336-65.4336s-65.4336 29.3376-65.4336 65.4336v135.3728h-8.9088z" fill="#413D2C" p-id="4906"></path><path d="M677.6832 636.0576h-4.2496v-87.3984h-87.4496v87.3984h-4.1472a3.9424 3.9424 0 0 0 0 7.8848h95.8464a3.9424 3.9424 0 0 0 0-7.8848z" fill="#FFFFFF" p-id="4907"></path><path d="M677.6832 649.1136h-95.8464a9.0624 9.0624 0 1 1-0.9216-18.0736v-87.4496h97.6896v87.4496c4.608 0.4608 8.192 4.352 8.192 9.0112-0.0512 4.9664-4.096 9.0624-9.1136 9.0624z m-86.5792-10.24h77.2096v-85.0944h-77.2096v85.0944z" fill="#413D2C" p-id="4908"></path></svg>